PathFileType	4	(x/y/z)	TRC_MarkerData\Passive\Passive_Pref0011.trc
DataRate	CameraRate	NumFrames	NumMarkers	Units	OrigDataRate	OrigDataStartFrame	OrigNumFrames
240	240	9	50	mm	240	271	309
Frame#	Time	R_AC			L_AC			HEAD			STERN			C7			L_IC			R_IC			L_ASIS			R_ASIS			L_GT			R_GT			L_PSIS			R_PSIS			SACRAL			L_LAT_KNEE			L_MED_KNEE			R_LAT_KNEE			R_MED_KNEE			L_LAT_ANK			L_MED_ANK			R_LAT_ANK			R_MED_ANK			L_THIGH_PROX_POST			L_THIGH_PROX_ANT			L_THIGH_DIST_ANT			L_THIGH_DIST_POST			R_THIGH_PROX_POST			R_THIGH_PROX_ANT			R_THIGH_DIST_ANT			R_THIGH_DIST_POST			L_SHANK_PROX_POST			L_SHANK_PROX_ANT			L_SHANK_DIST_ANT			L_SHANK_DIST_POST			R_SHANK_PROX_POST			R_SHANK_PROX_ANT			R_SHANK_DIST_ANT			R_SHANK_DIST_POST			L_HEEL_LAT			L_HEEL_SUP			L_HEEL_MED			R_HEEL_LAT			R_HEEL_SUP			R_HEEL_MED			L_1ST_MET			L_5TH_MET			L_TOE			R_1ST_MET			R_5TH_MET			R_TOE			
		X1	Y1	Z1	X2	Y2	Z2	X3	Y3	Z3	X4	Y4	Z4	X5	Y5	Z5	X6	Y6	Z6	X7	Y7	Z7	X8	Y8	Z8	X9	Y9	Z9	X10	Y10	Z10	X11	Y11	Z11	X12	Y12	Z12	X13	Y13	Z13	X14	Y14	Z14	X15	Y15	Z15	X16	Y16	Z16	X17	Y17	Z17	X18	Y18	Z18	X19	Y19	Z19	X20	Y20	Z20	X21	Y21	Z21	X22	Y22	Z22	X23	Y23	Z23	X24	Y24	Z24	X25	Y25	Z25	X26	Y26	Z26	X27	Y27	Z27	X28	Y28	Z28	X29	Y29	Z29	X30	Y30	Z30	X31	Y31	Z31	X32	Y32	Z32	X33	Y33	Z33	X34	Y34	Z34	X35	Y35	Z35	X36	Y36	Z36	X37	Y37	Z37	X38	Y38	Z38	X39	Y39	Z39	X40	Y40	Z40	X41	Y41	Z41	X42	Y42	Z42	X43	Y43	Z43	X44	Y44	Z44	X45	Y45	Z45	X46	Y46	Z46	X47	Y47	Z47	X48	Y48	Z48	X49	Y49	Z49	X50	Y50	Z50	

271	1.1287	521.46	1539.2	483.99	485.44	1561.3	79.88	547.67	1870.3	296.84	578.78	1514.9	280.78	445.84	1589.8	286.68	501.13	1117.4	116.2	490.48	1125.1	451.93	554.69	1060.3	158.01	550.09	1063.5	423.88	479.63	973.46	98.745	456.3	986.53	462.98	358.53	1066.4	223.37	351.37	1067.3	330.84	344.43	1033.8	275.99	672.38	605.34	126.12	657.06	607.49	264.25	400.5	568.54	415.86	409.24	568.92	284.43	627.38	140.68	104.57	610.89	131.33	190.33	278.67	105.33	335.49	320.28	145.91	246.93	544.43	797.83	105.9	602.98	821.95	113.08	635.29	757.17	125.15	NaN	NaN	NaN	416.31	804.56	455.02	484.12	797.12	460.22	471.44	722.53	447.23	402.74	733.25	438.27	645.71	504.38	133.93	708.43	505.32	147.68	707.67	454.77	151.68	652.14	456.54	128.83	320.64	389.21	408.62	387.62	385.49	399.33	374.47	314.12	381.31	306.74	317.9	389.59	578.19	60.837	94.552	555.26	83.744	125.23	560.93	55.687	158.89	201.59	75.589	303.51	206.32	110.81	274.2	222.55	85.968	241.26	775.68	71.07	229.06	774.54	78.121	117.86	826.07	92.162	207.71	430.41	54.53	248.94	408	34.6	356.75	476.15	46.917	290.01
272	1.1328	526.13	1538.3	483.74	490.57	1560.4	79.545	552.44	1869.4	296.59	583.71	1514	280.59	450.79	1588.9	286.35	505.9	1116.5	115.97	494.89	1124.3	451.7	559.41	1059.3	157.87	554.6	1062.7	423.75	484.31	972.34	98.694	460.49	986.06	462.87	363.2	1065.5	223.02	355.91	1066.6	330.55	348.98	1033	275.67	677.59	605.16	127.23	662.3	607.13	265.37	401.73	568.63	415.87	410.38	568.94	284.42	642	139.69	106.09	625.78	130.05	191.85	278.86	105.66	335.38	320.69	146.11	246.8	549.16	796.61	106.27	607.74	820.79	113.36	640.1	756.06	125.74	NaN	NaN	NaN	419.31	804.61	455.09	487.06	796.69	460.07	473.88	722.2	447.08	405.23	733.37	438.26	652.97	503.68	135.15	715.66	505.9	148.83	715.94	455.36	152.86	660.36	455.98	130.07	321.19	389.53	408.58	388.17	385.65	399.37	374.9	314.3	381.33	307.19	318.24	389.52	594.44	58.852	96.156	571.08	81.323	126.84	577.32	53.407	160.5	201.74	76.062	303.36	206.55	111.25	274.02	222.75	86.356	241.12	791.75	73.217	230.55	790.43	80.139	119.32	841.68	95.285	209.12	430.56	54.465	248.98	407.98	34.615	356.75	476.26	46.781	290.05
273	1.137	530.83	1537.3	483.48	495.69	1559.5	79.205	557.2	1868.4	296.32	588.66	1513	280.38	455.75	1588	286.01	510.67	1115.5	115.73	499.32	1123.4	451.46	564.13	1058.2	157.72	559.14	1061.9	423.61	488.98	971.18	98.646	464.71	985.56	462.76	367.89	1064.5	222.69	360.47	1065.8	330.28	353.54	1032.2	275.37	682.73	604.92	128.32	667.54	606.73	266.47	402.97	568.71	415.89	411.51	568.96	284.41	656.48	138.84	107.66	640.56	128.91	193.43	279.04	105.98	335.25	321.08	146.31	246.66	553.89	795.35	106.63	612.52	819.58	113.62	644.9	754.89	126.32	NaN	NaN	NaN	422.33	804.63	455.15	490.02	796.25	459.92	476.34	721.85	446.93	407.73	733.48	438.25	660.17	502.97	136.36	722.8	506.45	149.96	724.12	455.95	154.02	668.5	455.41	131.31	321.74	389.86	408.53	388.72	385.81	399.41	375.33	314.48	381.35	307.63	318.59	389.46	610.57	57.03	97.846	586.8	79.061	128.55	593.61	51.307	162.21	201.9	76.537	303.19	206.79	111.69	273.83	222.96	86.743	240.95	807.66	75.512	232.05	806.12	82.283	120.79	857.1	98.535	210.5	430.7	54.4	249.01	407.96	34.632	356.75	476.37	46.644	290.08
274	1.1412	535.55	1536.3	483.21	500.82	1558.6	78.861	561.98	1867.5	296.05	593.62	1512	280.16	460.73	1587.1	285.67	515.42	1114.4	115.49	503.79	1122.5	451.22	568.86	1057.2	157.56	563.7	1061.1	423.45	493.67	969.96	98.598	468.96	985.03	462.66	372.58	1063.5	222.36	365.06	1064.9	330.01	358.11	1031.3	275.07	687.82	604.6	129.38	672.77	606.29	267.54	404.22	568.79	415.9	412.65	568.97	284.39	670.83	138.1	109.29	655.24	127.92	195.08	279.23	106.31	335.1	321.46	146.5	246.52	558.63	794.03	106.98	617.31	818.32	113.86	649.7	753.65	126.89	NaN	NaN	NaN	425.37	804.63	455.21	493.01	795.77	459.76	478.8	721.49	446.76	410.25	733.57	438.23	667.3	502.23	137.57	729.86	506.97	151.06	732.21	456.52	155.16	676.57	454.83	132.54	322.28	390.18	408.47	389.27	385.97	399.45	375.75	314.67	381.36	308.07	318.94	389.39	626.55	55.366	99.619	602.41	76.955	130.36	609.79	49.383	164	202.06	77.013	303.01	207.02	112.12	273.62	223.17	87.13	240.78	823.39	77.945	233.55	821.6	84.544	122.26	872.33	101.9	211.87	430.85	54.335	249.05	407.93	34.651	356.75	476.48	46.505	290.13
275	1.1454	540.31	1535.2	482.93	505.94	1557.6	78.513	566.77	1866.4	295.77	598.59	1510.9	279.93	465.72	1586.1	285.33	520.18	1113.4	115.24	508.28	1121.6	450.98	573.6	1056	157.39	568.3	1060.2	423.29	498.37	968.69	98.55	473.23	984.47	462.56	377.29	1062.5	222.04	369.66	1064	329.75	362.71	1030.4	274.79	692.85	604.22	130.4	678	605.81	268.59	405.47	568.86	415.9	413.81	568.98	284.36	685.03	137.47	110.95	669.79	127.06	196.78	279.43	106.63	334.93	321.84	146.7	246.36	563.38	792.66	107.32	622.12	817	114.09	654.5	752.35	127.46	NaN	NaN	NaN	428.43	804.61	455.27	496.01	795.27	459.61	481.28	721.1	446.58	412.79	733.64	438.2	674.37	501.46	138.77	736.84	507.45	152.12	740.2	457.08	156.27	684.56	454.24	133.78	322.84	390.51	408.4	389.82	386.13	399.49	376.18	314.85	381.37	308.52	319.29	389.31	642.4	53.853	101.47	617.91	75.002	132.25	625.85	47.629	165.88	202.21	77.493	302.81	207.26	112.56	273.4	223.38	87.517	240.59	838.95	80.508	235.05	836.87	86.911	123.74	887.36	105.38	213.22	431	54.269	249.08	407.9	34.671	356.75	476.59	46.364	290.17
276	1.1496	545.09	1534.1	482.64	511.06	1556.5	78.16	571.56	1865.4	295.49	603.58	1509.9	279.69	470.73	1585.1	284.98	524.94	1112.3	114.98	512.8	1120.6	450.73	578.35	1054.9	157.21	572.93	1059.3	423.12	503.09	967.38	98.499	477.53	983.89	462.46	382.01	1061.4	221.73	374.28	1063.1	329.5	367.32	1029.4	274.51	697.83	603.77	131.39	683.22	605.29	269.61	406.74	568.93	415.91	414.99	568.98	284.33	699.08	136.96	112.66	684.22	126.34	198.53	279.62	106.96	334.74	322.21	146.9	246.19	568.15	791.25	107.65	626.96	815.63	114.3	659.29	751	128.03	NaN	NaN	NaN	431.51	804.56	455.32	499.03	794.75	459.45	483.78	720.69	446.41	415.34	733.69	438.17	681.37	500.67	139.95	743.73	507.89	153.16	748.1	457.62	157.36	692.47	453.64	135	323.4	390.83	408.32	390.38	386.28	399.51	376.62	315.02	381.37	308.97	319.64	389.22	658.08	52.487	103.39	633.28	73.196	134.22	641.78	46.043	167.84	202.37	77.976	302.6	207.5	113.01	273.16	223.59	87.903	240.38	854.31	83.19	236.56	851.93	89.372	125.22	902.19	108.95	214.55	431.14	54.202	249.12	407.87	34.693	356.74	476.71	46.221	290.22
277	1.1537	549.91	1532.9	482.35	516.18	1555.5	77.802	576.37	1864.3	295.19	608.59	1508.7	279.43	475.75	1584.1	284.63	529.7	1111.1	114.72	517.35	1119.6	450.48	583.11	1053.7	157.03	577.59	1058.4	422.94	507.83	966.03	98.444	481.86	983.27	462.36	386.74	1060.3	221.42	378.93	1062.2	329.24	371.95	1028.4	274.24	702.76	603.25	132.34	688.43	604.74	270.6	408.03	568.98	415.9	416.19	568.97	284.28	712.97	136.54	114.4	698.51	125.74	200.32	279.82	107.29	334.54	322.57	147.1	246.01	572.93	789.8	107.97	631.82	814.21	114.5	664.08	749.61	128.59	NaN	NaN	NaN	434.61	804.5	455.37	502.07	794.2	459.3	486.3	720.26	446.22	417.91	733.72	438.13	688.32	499.86	141.13	750.55	508.3	154.15	755.91	458.14	158.42	700.3	453.03	136.22	323.98	391.15	408.22	390.96	386.43	399.54	377.07	315.2	381.37	309.44	320	389.13	673.61	51.262	105.37	648.5	71.536	136.27	657.56	44.617	169.87	202.52	78.463	302.37	207.74	113.45	272.9	223.81	88.29	240.16	869.47	85.979	238.06	866.75	91.918	126.7	916.79	112.61	215.86	431.29	54.135	249.15	407.84	34.716	356.73	476.83	46.075	290.27
278	1.1579	554.76	1531.8	482.04	521.31	1554.4	77.439	581.19	1863.2	294.89	613.62	1507.6	279.16	480.8	1583	284.28	534.47	1109.9	114.45	521.94	1118.6	450.23	587.89	1052.4	156.84	582.28	1057.4	422.76	512.61	964.65	98.382	486.21	982.62	462.27	391.5	1059.1	221.12	383.61	1061.2	328.99	376.6	1027.4	273.97	707.66	602.66	133.25	693.64	604.15	271.55	409.35	569.03	415.89	417.43	568.95	284.23	726.69	136.22	116.17	712.65	125.27	202.16	280.01	107.62	334.31	322.93	147.29	245.82	577.72	788.31	108.28	636.7	812.76	114.7	668.88	748.17	129.15	NaN	NaN	NaN	437.73	804.4	455.41	505.13	793.63	459.15	488.84	719.81	446.04	420.51	733.73	438.09	695.21	499.02	142.28	757.3	508.67	155.12	763.63	458.64	159.46	708.06	452.41	137.42	324.58	391.47	408.11	391.57	386.56	399.55	377.54	315.36	381.35	309.92	320.35	389.02	688.96	50.17	107.41	663.57	70.015	138.37	673.19	43.346	171.96	202.68	78.955	302.12	207.98	113.91	272.63	224.03	88.678	239.93	884.41	88.864	239.57	881.35	94.537	128.17	931.18	116.34	217.15	431.44	54.068	249.17	407.8	34.74	356.72	476.95	45.926	290.33
279	1.1621	559.65	1530.5	481.73	526.44	1553.2	77.07	586.03	1862	294.58	618.67	1506.4	278.88	485.86	1581.8	283.92	539.26	1108.7	114.18	526.57	1117.5	449.98	592.68	1051.1	156.65	587.01	1056.4	422.57	517.43	963.23	98.312	490.59	981.94	462.17	396.27	1057.9	220.82	388.31	1060.1	328.73	381.28	1026.3	273.71	712.53	602.01	134.13	698.85	603.54	272.46	410.71	569.06	415.87	418.71	568.92	284.17	740.25	135.98	117.97	726.64	124.91	204.02	280.21	107.95	334.08	323.28	147.48	245.62	582.54	786.78	108.58	641.6	811.26	114.88	673.67	746.69	129.7	NaN	NaN	NaN	440.87	804.28	455.46	508.22	793.02	459	491.4	719.33	445.86	423.14	733.72	438.05	702.05	498.16	143.41	763.97	508.99	156.04	771.27	459.11	160.47	715.75	451.78	138.61	325.21	391.78	407.99	392.2	386.69	399.55	378.03	315.53	381.32	310.43	320.7	388.9	704.13	49.206	109.5	678.48	68.629	140.53	688.65	42.224	174.11	202.84	79.453	301.86	208.22	114.36	272.33	224.25	89.066	239.68	899.13	91.831	241.07	895.71	97.216	129.65	945.33	120.13	218.43	431.59	54	249.2	407.76	34.766	356.7	477.07	45.774	290.38
